    <svg width="0" height="0" class="hidden">
  <symbol fill="none" xmlns="http://www.w3.org/2000/svg" viewBox="0 0 48 48" id="person">
    <path d="M8 33.36C8 27.8371 12.4772 23.36 18 23.36H30C35.5228 23.36 40 27.8371 40 33.36V40.6C40 41.1523 39.5523 41.6 39 41.6H9C8.44772 41.6 8 41.1523 8 40.6V33.36Z" fill="currentColor"></path>
    <circle cx="24" cy="14.0801" r="8" fill="currentColor" fill-opacity="0.5"></circle>
  </symbol>
  <symbol fill="none" xmlns="http://www.w3.org/2000/svg" viewBox="0 0 20 21" id="scan">
    <g clip-path="url(#clip0_17_2460)">
      <path d="M3.81372 0H5.93426V1.81877H3.81372C3.28532 1.81842 2.7784 2.02787 2.40437 2.40111C2.03113 2.77514 1.82168 3.28206 1.82204 3.81046V6.41383H0V3.81372C0.000630757 3.31383 0.0997832 2.81897 0.291788 2.35743C0.483794 1.89589 0.764886 1.47672 1.119 1.12389C1.47195 0.76824 1.89173 0.485862 2.35418 0.292985C2.81664 0.100109 3.31265 0.000539418 3.81372 0ZM14.7737 0H16.1863C16.6862 0.00027469 17.1812 0.0992648 17.6428 0.29129C18.1044 0.483316 18.5235 0.764597 18.8761 1.119C19.2311 1.47228 19.5128 1.89218 19.7051 2.35461C19.8974 2.81704 19.9965 3.3129 19.9967 3.81372V6.41383H18.1812V3.81372C18.1807 3.55199 18.1286 3.29292 18.0278 3.05137C17.9271 2.80981 17.7796 2.5905 17.594 2.406C17.409 2.22083 17.1893 2.07394 16.9475 1.97373C16.7056 1.87353 16.4464 1.82198 16.1847 1.82204H14.7737V0ZM19.9935 13.3513V16.2303C19.99 17.2407 19.5871 18.2088 18.8727 18.9232C18.1582 19.6377 17.1902 20.0406 16.1798 20.044H14.7737V18.2253H16.1863C16.7146 18.2227 17.2205 18.0117 17.5941 17.6381C17.9676 17.2645 18.1787 16.7586 18.1812 16.2303V13.3513H19.9935ZM5.92774 20.0391H3.80719C2.79842 20.0379 1.83145 19.636 1.119 18.9218L1.0668 18.8647C0.383599 18.1578 0.00118724 17.2134 0 16.2303V13.3513H1.81877V16.2303C1.81908 16.7406 2.0146 17.2314 2.36522 17.6022L2.406 17.638C2.5905 17.8237 2.80981 17.9711 3.05137 18.0719C3.29292 18.1726 3.55199 18.2248 3.81372 18.2253H5.93426V20.044L5.92774 20.0391Z" fill="currentColor"></path>
      <path d="M15.0001 10C15.0001 12.7614 12.7615 15 10.0001 15C7.23863 15 5.00005 12.7614 5.00005 10C5.00005 7.23858 7.23863 5 10.0001 5C12.7615 5 15.0001 7.23858 15.0001 10Z" fill="currentColor"></path>
    </g>
    <defs>
      <clipPath id="clip0_17_2460">
        <rect width="20" height="20.044" fill="currentColor"></rect>
      </clipPath>
    </defs>
  </symbol>
  <symbol fill="none" xmlns="http://www.w3.org/2000/svg" viewBox="0 0 15 15" id="search">
    <g clip-path="url(#clip0_6_132)">
      <path d="M11.008 9.69761C11.9158 8.45888 12.3224 6.92307 12.1464 5.39744C11.9704 3.8718 11.2249 2.46886 10.059 1.46929C8.8931 0.469723 7.39275 -0.0527622 5.85815 0.00636889C4.32354 0.0655 2.86785 0.701886 1.7823 1.78821C0.696757 2.87453 0.0614125 4.33068 0.00337956 5.86533C-0.0546534 7.39998 0.468905 8.89995 1.46931 10.0652C2.46971 11.2304 3.87319 11.9749 5.39895 12.1497C6.9247 12.3246 8.46022 11.9169 9.6983 11.0082H9.69736C9.72549 11.0457 9.75549 11.0814 9.78924 11.116L13.3986 14.7254C13.5744 14.9013 13.8129 15.0002 14.0616 15.0003C14.3103 15.0004 14.5488 14.9017 14.7247 14.7259C14.9006 14.5501 14.9995 14.3116 14.9996 14.0629C14.9997 13.8142 14.901 13.5757 14.7252 13.3998L11.1158 9.79042C11.0823 9.75649 11.0462 9.72515 11.008 9.69667V9.69761ZM11.2499 6.09386C11.2499 6.77099 11.1165 7.44149 10.8574 8.06707C10.5982 8.69266 10.2184 9.26108 9.73963 9.73988C9.26083 10.2187 8.69241 10.5985 8.06683 10.8576C7.44124 11.1167 6.77074 11.2501 6.09362 11.2501C5.41649 11.2501 4.74599 11.1167 4.1204 10.8576C3.49482 10.5985 2.9264 10.2187 2.4476 9.73988C1.96879 9.26108 1.58899 8.69266 1.32986 8.06707C1.07074 7.44149 0.937365 6.77099 0.937365 6.09386C0.937365 4.72634 1.48061 3.41482 2.4476 2.44784C3.41458 1.48086 4.72609 0.93761 6.09362 0.93761C7.46114 0.93761 8.77265 1.48086 9.73963 2.44784C10.7066 3.41482 11.2499 4.72634 11.2499 6.09386Z" fill="currentColor"></path>
    </g>
    <defs>
      <clipPath id="clip0_6_132">
        <rect width="15" height="15" fill="currentColor"></rect>
      </clipPath>
    </defs>
  </symbol>
  <symbol fill="none" xmlns="http://www.w3.org/2000/svg" viewBox="0 0 48 48" id="setting">
    <circle cx="21.75" cy="23.25" r="9.75" fill="currentColor" fill-opacity="0.67"></circle>
    <path d="M27.1612 8.3625C26.232 5.2125 21.768 5.2125 20.8387 8.3625L20.6137 9.1275C20.4749 9.59909 20.2323 10.0336 19.9036 10.3992C19.575 10.7648 19.1687 11.0523 18.7145 11.2404C18.2603 11.4285 17.7698 11.5126 17.2789 11.4865C16.788 11.4604 16.3092 11.3248 15.8775 11.0895L15.18 10.707C12.2933 9.1365 9.1365 12.2933 10.7092 15.1777L11.0895 15.8775C12.093 17.7225 11.1413 20.0197 9.1275 20.6137L8.3625 20.8387C5.2125 21.768 5.2125 26.232 8.3625 27.1612L9.1275 27.3862C9.59909 27.5251 10.0336 27.7677 10.3992 28.0964C10.7648 28.425 11.0523 28.8313 11.2404 29.2855C11.4285 29.7397 11.5126 30.2302 11.4865 30.7211C11.4604 31.212 11.3248 31.6908 11.0895 32.1225L10.707 32.82C9.1365 35.7068 12.2933 38.8635 15.1777 37.2907L15.8775 36.9105C16.3092 36.6752 16.788 36.5396 17.2789 36.5135C17.7698 36.4874 18.2603 36.5715 18.7145 36.7596C19.1687 36.9477 19.575 37.2352 19.9036 37.6008C20.2323 37.9664 20.4749 38.4009 20.6137 38.8725L20.8387 39.6375C21.768 42.7875 26.232 42.7875 27.1612 39.6375L27.3862 38.8725C27.5251 38.4009 27.7677 37.9664 28.0964 37.6008C28.425 37.2352 28.8313 36.9477 29.2855 36.7596C29.7397 36.5715 30.2302 36.4874 30.7211 36.5135C31.212 36.5396 31.6908 36.6752 32.1225 36.9105L32.82 37.293C35.7068 38.8635 38.8635 35.7067 37.2907 32.8222L36.9105 32.1225C36.6752 31.6908 36.5396 31.212 36.5135 30.7211C36.4874 30.2302 36.5715 29.7397 36.7596 29.2855C36.9477 28.8313 37.2352 28.425 37.6008 28.0964C37.9664 27.7677 38.4009 27.5251 38.8725 27.3862L39.6375 27.1612C42.7875 26.232 42.7875 21.768 39.6375 20.8387L38.8725 20.6137C38.4009 20.4749 37.9664 20.2323 37.6008 19.9036C37.2352 19.575 36.9477 19.1687 36.7596 18.7145C36.5715 18.2603 36.4874 17.7698 36.5135 17.2789C36.5396 16.788 36.6752 16.3092 36.9105 15.8775L37.293 15.18C38.8635 12.2933 35.7067 9.1365 32.8222 10.7092L32.1225 11.0895C31.6908 11.3248 31.212 11.4604 30.7211 11.4865C30.2302 11.5126 29.7397 11.4285 29.2855 11.2404C28.8313 11.0523 28.425 10.7648 28.0964 10.3992C27.7677 10.0336 27.5251 9.59909 27.3862 9.1275L27.1612 8.3625ZM24 30.5925C22.2516 30.5925 20.5747 29.8979 19.3384 28.6616C18.1021 27.4253 17.4075 25.7484 17.4075 24C17.4075 22.2516 18.1021 20.5747 19.3384 19.3384C20.5747 18.1021 22.2516 17.4075 24 17.4075C25.7478 17.4075 27.4241 18.1018 28.66 19.3377C29.8959 20.5737 30.5903 22.2499 30.5903 23.9977C30.5903 25.7456 29.8959 27.4219 28.66 28.6578C27.4241 29.8937 25.7478 30.588 24 30.588V30.5925Z" fill="currentColor"></path>
  </symbol>
  <symbol fill="none" xmlns="http://www.w3.org/2000/svg" viewBox="0 0 20 20" id="view">
    <path d="M13.125 10C13.125 10.8288 12.7958 11.6237 12.2097 12.2097C11.6237 12.7958 10.8288 13.125 10 13.125C9.1712 13.125 8.37634 12.7958 7.79029 12.2097C7.20424 11.6237 6.875 10.8288 6.875 10C6.875 9.1712 7.20424 8.37634 7.79029 7.79029C8.37634 7.20424 9.1712 6.875 10 6.875C10.8288 6.875 11.6237 7.20424 12.2097 7.79029C12.7958 8.37634 13.125 9.1712 13.125 10Z" fill="currentColor"></path>
    <path d="M0 10C0 10 3.75 3.125 10 3.125C16.25 3.125 20 10 20 10C20 10 16.25 16.875 10 16.875C3.75 16.875 0 10 0 10ZM10 14.375C11.1603 14.375 12.2731 13.9141 13.0936 13.0936C13.9141 12.2731 14.375 11.1603 14.375 10C14.375 8.83968 13.9141 7.72688 13.0936 6.90641C12.2731 6.08594 11.1603 5.625 10 5.625C8.83968 5.625 7.72688 6.08594 6.90641 6.90641C6.08594 7.72688 5.625 8.83968 5.625 10C5.625 11.1603 6.08594 12.2731 6.90641 13.0936C7.72688 13.9141 8.83968 14.375 10 14.375Z" fill="currentColor"></path>
  </symbol>
  <symbol fill="none" xmlns="http://www.w3.org/2000/svg" viewBox="0 0 20 20" id="cloud-upload">
    <path d="M10 2.5C8.3503 2.50517 6.75685 3.10017 5.5075 4.1775C4.55 5.0025 3.85625 6.0775 3.6775 7.15625C1.5825 7.61875 0 9.44375 0 11.6475C0 14.2075 2.135 16.25 4.72625 16.25H15.8588C18.1275 16.25 20 14.4625 20 12.2162C20 10.1712 18.4475 8.505 16.4575 8.22375C16.1538 4.99875 13.3625 2.5 10 2.5ZM12.9425 8.9325C13.0006 8.99061 13.0467 9.0596 13.0782 9.13552C13.1096 9.21144 13.1258 9.29282 13.1258 9.375C13.1258 9.45718 13.1096 9.53856 13.0782 9.61448C13.0467 9.6904 13.0006 9.75939 12.9425 9.8175C12.8844 9.87561 12.8154 9.92171 12.7395 9.95315C12.6636 9.9846 12.5822 10.0008 12.5 10.0008C12.4178 10.0008 12.3364 9.9846 12.2605 9.95315C12.1846 9.92171 12.1156 9.87561 12.0575 9.8175L10.625 8.38375V13.125C10.625 13.2908 10.5592 13.4497 10.4419 13.5669C10.3247 13.6842 10.1658 13.75 10 13.75C9.83424 13.75 9.67527 13.6842 9.55806 13.5669C9.44085 13.4497 9.375 13.2908 9.375 13.125V8.38375L7.9425 9.8175C7.82514 9.93486 7.66597 10.0008 7.5 10.0008C7.33403 10.0008 7.17486 9.93486 7.0575 9.8175C6.94014 9.70014 6.87421 9.54097 6.87421 9.375C6.87421 9.20903 6.94014 9.04986 7.0575 8.9325L9.5575 6.4325C9.61556 6.3743 9.68453 6.32812 9.76046 6.29661C9.83639 6.2651 9.91779 6.24888 10 6.24888C10.0822 6.24888 10.1636 6.2651 10.2395 6.29661C10.3155 6.32812 10.3844 6.3743 10.4425 6.4325L12.9425 8.9325Z" fill="currentColor"></path>
  </symbol>
  <symbol fill="none" xmlns="http://www.w3.org/2000/svg" viewBox="0 0 20 20" id="edit">
    <g clip-path="url(#clip0_17_2453)">
      <path d="M16.0675 0.182599C15.9503 0.0654292 15.7914 -0.000392914 15.6256 -0.000392914C15.4599 -0.000392914 15.301 0.0654292 15.1838 0.182599L13.125 2.24135L17.7588 6.8751L19.8175 4.8176C19.8757 4.75954 19.9219 4.69057 19.9534 4.61464C19.9849 4.53871 20.0011 4.45731 20.0011 4.3751C20.0011 4.29289 19.9849 4.21149 19.9534 4.13556C19.9219 4.05963 19.8757 3.99066 19.8175 3.9326L16.0675 0.182599ZM16.875 7.75885L12.2413 3.1251L4.11625 11.2501H4.375C4.54076 11.2501 4.69973 11.3159 4.81694 11.4332C4.93415 11.5504 5 11.7093 5 11.8751V12.5001H5.625C5.79076 12.5001 5.94973 12.5659 6.06694 12.6832C6.18415 12.8004 6.25 12.9593 6.25 13.1251V13.7501H6.875C7.04076 13.7501 7.19973 13.8159 7.31694 13.9332C7.43415 14.0504 7.5 14.2093 7.5 14.3751V15.0001H8.125C8.29076 15.0001 8.44973 15.0659 8.56694 15.1832C8.68415 15.3004 8.75 15.4593 8.75 15.6251V15.8838L16.875 7.75885ZM7.54 17.0938C7.5137 17.0239 7.50015 16.9498 7.5 16.8751V16.2501H6.875C6.70924 16.2501 6.55027 16.1843 6.43306 16.067C6.31585 15.9498 6.25 15.7909 6.25 15.6251V15.0001H5.625C5.45924 15.0001 5.30027 14.9343 5.18306 14.817C5.06585 14.6998 5 14.5409 5 14.3751V13.7501H4.375C4.20924 13.7501 4.05027 13.6843 3.93306 13.567C3.81585 13.4498 3.75 13.2909 3.75 13.1251V12.5001H3.125C3.05028 12.5 2.97618 12.4864 2.90625 12.4601L2.6825 12.6826C2.62294 12.7426 2.57616 12.814 2.545 12.8926L0.0450017 19.1426C-0.000461602 19.2562 -0.011591 19.3806 0.0129933 19.5005C0.0375777 19.6203 0.0967945 19.7303 0.183303 19.8168C0.269811 19.9033 0.379806 19.9625 0.499651 19.9871C0.619496 20.0117 0.743922 20.0006 0.857502 19.9551L7.1075 17.4551C7.18608 17.4239 7.25752 17.3772 7.3175 17.3176L7.54 17.0951V17.0938Z" fill="currentColor"></path>
    </g>
    <defs>
      <clipPath id="clip0_17_2453">
        <rect width="20" height="20" fill="currentColor"></rect>
      </clipPath>
    </defs>
  </symbol>
    <symbol fill="none" xmlns="http://www.w3.org/2000/svg" viewBox="0 0 20 20" id="add">
    <path fill-rule="evenodd" clip-rule="evenodd" d="M10 2.5C10.1658 2.5 10.3247 2.56585 10.4419 2.68306C10.5592 2.80027 10.625 2.95924 10.625 3.125V9.375H16.875C17.0408 9.375 17.1997 9.44085 17.3169 9.55806C17.4342 9.67527 17.5 9.83424 17.5 10C17.5 10.1658 17.4342 10.3247 17.3169 10.4419C17.1997 10.5592 17.0408 10.625 16.875 10.625H10.625V16.875C10.625 17.0408 10.5592 17.1997 10.4419 17.3169C10.3247 17.4342 10.1658 17.5 10 17.5C9.83424 17.5 9.67527 17.4342 9.55806 17.3169C9.44085 17.1997 9.375 17.0408 9.375 16.875V10.625H3.125C2.95924 10.625 2.80027 10.5592 2.68306 10.4419C2.56585 10.3247 2.5 10.1658 2.5 10C2.5 9.83424 2.56585 9.67527 2.68306 9.55806C2.80027 9.44085 2.95924 9.375 3.125 9.375H9.375V3.125C9.375 2.95924 9.44085 2.80027 9.55806 2.68306C9.67527 2.56585 9.83424 2.5 10 2.5Z" fill="currentColor"></path>
  </symbol>
    <symbol xmlns="http://www.w3.org/2000/svg" fill="currentColor" viewBox="0 0 16 16" id="gender-male">
    <path fill-rule="evenodd" d="M9.5 2a.5.5 0 0 1 0-1h5a.5.5 0 0 1 .5.5v5a.5.5 0 0 1-1 0V2.707L9.871 6.836a5 5 0 1 1-.707-.707L13.293 2H9.5zM6 6a4 4 0 1 0 0 8 4 4 0 0 0 0-8z"></path>
  </symbol>
  <symbol xmlns="http://www.w3.org/2000/svg" fill="currentColor" viewBox="0 0 16 16" id="gender-female">
    <path fill-rule="evenodd" d="M8 1a4 4 0 1 0 0 8 4 4 0 0 0 0-8zM3 5a5 5 0 1 1 5.5 4.975V12h2a.5.5 0 0 1 0 1h-2v2.5a.5.5 0 0 1-1 0V13h-2a.5.5 0 0 1 0-1h2V9.975A5 5 0 0 1 3 5z"></path>
  </symbol>
</svg>