<svg width="134" height="134" viewBox="0 0 134 134" fill="none" xmlns="http://www.w3.org/2000/svg">
<path d="M115.903 110.139C124.007 100.388 129.199 88.4738 130.866 75.8076C132.533 63.1414 130.605 50.2536 125.309 38.67C120.013 27.0864 111.572 17.2923 100.985 10.4473C90.3983 3.60224 78.1088 -0.00701248 65.5719 0.0468588L65.6715 24.1315C73.6929 24.097 81.5561 26.4063 88.3299 30.786C95.1037 35.1656 100.505 41.4321 103.893 48.8436C107.281 56.2551 108.515 64.5011 107.449 72.6052C106.382 80.7094 103.06 88.3323 97.8748 94.5713L115.903 110.139Z" fill="#ffffff"/>
<path d="M27 57.9844L27 129.984H4L4 57.9844H27Z" fill="#ffffff"/>
<path d="M27.3347 23.7008V43.1693H3.63391L3.63391 23.7008H27.3347Z" fill="#ffffff"/>
<path d="M67.9646 57.559V75.3346H3.63391L3.63391 57.559H67.9646Z" fill="#ffffff"/>
<path d="M3.63394 0H66.2717V24.124H3.63391L3.63394 0Z" fill="#ffffff"/>
<circle cx="86" cy="117.984" r="12" fill="#DD4B4B"/>
</svg>
