<svg width="20" height="20" viewBox="0 0 20 20" fill="none" xmlns="http://www.w3.org/2000/svg">
<path d="M10 2.5C8.3503 2.50517 6.75685 3.10017 5.5075 4.1775C4.55 5.0025 3.85625 6.0775 3.6775 7.15625C1.5825 7.61875 0 9.44375 0 11.6475C0 14.2075 2.135 16.25 4.72625 16.25H15.8588C18.1275 16.25 20 14.4625 20 12.2162C20 10.1712 18.4475 8.505 16.4575 8.22375C16.1538 4.99875 13.3625 2.5 10 2.5ZM12.9425 8.9325C13.0006 8.99061 13.0467 9.0596 13.0782 9.13552C13.1096 9.21144 13.1258 9.29282 13.1258 9.375C13.1258 9.45718 13.1096 9.53856 13.0782 9.61448C13.0467 9.6904 13.0006 9.75939 12.9425 9.8175C12.8844 9.87561 12.8154 9.92171 12.7395 9.95315C12.6636 9.9846 12.5822 10.0008 12.5 10.0008C12.4178 10.0008 12.3364 9.9846 12.2605 9.95315C12.1846 9.92171 12.1156 9.87561 12.0575 9.8175L10.625 8.38375V13.125C10.625 13.2908 10.5592 13.4497 10.4419 13.5669C10.3247 13.6842 10.1658 13.75 10 13.75C9.83424 13.75 9.67527 13.6842 9.55806 13.5669C9.44085 13.4497 9.375 13.2908 9.375 13.125V8.38375L7.9425 9.8175C7.82514 9.93486 7.66597 10.0008 7.5 10.0008C7.33403 10.0008 7.17486 9.93486 7.0575 9.8175C6.94014 9.70014 6.87421 9.54097 6.87421 9.375C6.87421 9.20903 6.94014 9.04986 7.0575 8.9325L9.5575 6.4325C9.61556 6.3743 9.68453 6.32812 9.76046 6.29661C9.83639 6.2651 9.91779 6.24888 10 6.24888C10.0822 6.24888 10.1636 6.2651 10.2395 6.29661C10.3155 6.32812 10.3844 6.3743 10.4425 6.4325L12.9425 8.9325Z" fill="#3F4254"/>
</svg>
